<svg xmlns="http://www.w3.org/2000/svg" xmlns:xlink="http://www.w3.org/1999/xlink" width="500" zoomAndPan="magnify" viewBox="0 0 375 374.999991" height="500" preserveAspectRatio="xMidYMid meet" version="1.0"><defs><g/><clipPath id="94494c337e"><path d="M 37.5 37.5 L 337.5 37.5 L 337.5 337.5 L 37.5 337.5 Z M 37.5 37.5 " clip-rule="nonzero"/></clipPath><clipPath id="92ec1833c4"><path d="M 187.5 37.5 C 104.65625 37.5 37.5 104.65625 37.5 187.5 C 37.5 270.34375 104.65625 337.5 187.5 337.5 C 270.34375 337.5 337.5 270.34375 337.5 187.5 C 337.5 104.65625 270.34375 37.5 187.5 37.5 Z M 187.5 37.5 " clip-rule="nonzero"/></clipPath><clipPath id="5032afc8dc"><path d="M 91.289062 91.289062 L 283.710938 91.289062 L 283.710938 283.710938 L 91.289062 283.710938 Z M 91.289062 91.289062 " clip-rule="nonzero"/></clipPath><clipPath id="f6f0d91c5d"><path d="M 187.5 91.289062 C 134.363281 91.289062 91.289062 134.363281 91.289062 187.5 C 91.289062 240.636719 134.363281 283.710938 187.5 283.710938 C 240.636719 283.710938 283.710938 240.636719 283.710938 187.5 C 283.710938 134.363281 240.636719 91.289062 187.5 91.289062 Z M 187.5 91.289062 " clip-rule="nonzero"/></clipPath><clipPath id="5c35ec9a6f"><path d="M 91.289062 91.289062 L 283.699219 91.289062 L 283.699219 283.699219 L 91.289062 283.699219 Z M 91.289062 91.289062 " clip-rule="nonzero"/></clipPath><clipPath id="96849624b5"><path d="M 187.496094 91.289062 C 134.363281 91.289062 91.289062 134.363281 91.289062 187.496094 C 91.289062 240.628906 134.363281 283.699219 187.496094 283.699219 C 240.628906 283.699219 283.699219 240.628906 283.699219 187.496094 C 283.699219 134.363281 240.628906 91.289062 187.496094 91.289062 Z M 187.496094 91.289062 " clip-rule="nonzero"/></clipPath><clipPath id="975ae6bd76"><path d="M 52.90625 165.507812 L 74.65625 165.507812 L 74.65625 187.257812 L 52.90625 187.257812 Z M 52.90625 165.507812 " clip-rule="nonzero"/></clipPath><clipPath id="63c9d12214"><path d="M 297.410156 165.507812 L 319.160156 165.507812 L 319.160156 187.257812 L 297.410156 187.257812 Z M 297.410156 165.507812 " clip-rule="nonzero"/></clipPath><clipPath id="15f39d40af"><path d="M 125.53125 113 L 249.28125 113 L 249.28125 262.5 L 125.53125 262.5 Z M 125.53125 113 " clip-rule="nonzero"/></clipPath></defs><g clip-path="url(#94494c337e)"><g clip-path="url(#92ec1833c4)"><path fill="#ffffff" d="M 37.5 37.5 L 337.5 37.5 L 337.5 337.5 L 37.5 337.5 Z M 37.5 37.5 " fill-opacity="1" fill-rule="nonzero"/><path stroke-linecap="butt" transform="matrix(0.75, 0, 0, 0.75, 37.500002, 37.499998)" fill="none" stroke-linejoin="miter" d="M 200.00001 0.00000328333 C 89.54167 0.00000328333 -0.00000271667 89.541676 -0.00000271667 200.000016 C -0.00000271667 310.458357 89.54167 400.00003 200.00001 400.00003 C 310.458351 400.00003 400.000024 310.458357 400.000024 200.000016 C 400.000024 89.541676 310.458351 0.00000328333 200.00001 0.00000328333 Z M 200.00001 0.00000328333 " stroke="#737373" stroke-width="4" stroke-opacity="1" stroke-miterlimit="4"/></g></g><g clip-path="url(#5032afc8dc)"><g clip-path="url(#f6f0d91c5d)"><path fill="#0fc1a7" d="M 91.289062 91.289062 L 283.710938 91.289062 L 283.710938 283.710938 L 91.289062 283.710938 Z M 91.289062 91.289062 " fill-opacity="1" fill-rule="nonzero"/></g></g><g clip-path="url(#5c35ec9a6f)"><g clip-path="url(#96849624b5)"><path stroke-linecap="butt" transform="matrix(0.75, 0, 0, 0.75, 91.290899, 91.290894)" fill="none" stroke-linejoin="miter" d="M 128.273602 -0.00244201 C 57.429847 -0.00244201 -0.00244801 57.429853 -0.00244801 128.273608 C -0.00244801 199.117363 57.429847 256.54445 128.273602 256.54445 C 199.117357 256.54445 256.544444 199.117363 256.544444 128.273608 C 256.544444 57.429853 199.117357 -0.00244201 128.273602 -0.00244201 Z M 128.273602 -0.00244201 " stroke="#737373" stroke-width="4" stroke-opacity="1" stroke-miterlimit="4"/></g></g><g clip-path="url(#975ae6bd76)"><path fill="#737373" d="M 63.898438 165.507812 C 62.828125 174.5625 61.957031 175.429688 52.90625 176.5 C 52.925781 176.503906 52.945312 176.507812 52.960938 176.507812 C 61.960938 177.578125 62.828125 178.460938 63.898438 187.492188 C 64.96875 178.441406 65.839844 177.574219 74.890625 176.5 C 65.839844 175.429688 64.96875 174.5625 63.898438 165.507812 Z M 63.898438 165.507812 " fill-opacity="1" fill-rule="nonzero"/></g><g clip-path="url(#63c9d12214)"><path fill="#737373" d="M 308.402344 165.507812 C 307.332031 174.5625 306.464844 175.429688 297.410156 176.5 C 297.429688 176.503906 297.449219 176.507812 297.46875 176.507812 C 306.46875 177.578125 307.335938 178.460938 308.402344 187.492188 C 309.476562 178.441406 310.34375 177.574219 319.394531 176.5 C 310.34375 175.429688 309.476562 174.5625 308.402344 165.507812 Z M 308.402344 165.507812 " fill-opacity="1" fill-rule="nonzero"/></g><g clip-path="url(#15f39d40af)"><path fill="#545454" d="M 183.589844 261.699219 C 183.1875 261.210938 183.003906 259.753906 183.003906 256.980469 L 183.003906 252.964844 L 181.296875 252.191406 C 177.5 250.464844 175.957031 247.894531 175.957031 243.292969 C 175.957031 240.878906 176.140625 240.117188 177.054688 238.769531 C 178.230469 237.039062 178.234375 237.042969 176.238281 234.855469 C 173.480469 231.828125 172.816406 224.464844 175.089844 222.046875 C 175.566406 221.539062 175.957031 220.929688 175.957031 220.691406 C 175.957031 220.457031 175.070312 219.121094 173.988281 217.730469 C 170.628906 213.40625 170.21875 212.324219 170.203125 207.722656 C 170.1875 204.015625 170.292969 203.480469 171.417969 201.527344 C 172.09375 200.351562 173.210938 198.796875 173.894531 198.066406 L 175.140625 196.746094 L 173.578125 194.871094 C 172.714844 193.839844 171.515625 191.9375 170.914062 190.640625 C 169.9375 188.554688 169.808594 187.722656 169.785156 183.371094 C 169.765625 179.109375 169.890625 178.167969 170.753906 176.265625 C 171.296875 175.058594 172.308594 173.53125 172.996094 172.875 C 174.207031 171.710938 174.644531 170.554688 173.867188 170.554688 C 173.65625 170.554688 172.425781 169.511719 171.132812 168.238281 C 167.542969 164.703125 165.683594 158.59375 167.148438 155.125 L 167.800781 153.578125 L 166.21875 152.292969 C 164.664062 151.03125 163.808594 149.691406 162.554688 146.550781 L 161.925781 144.976562 L 159.757812 145.671875 C 157.683594 146.335938 157.5 146.324219 155.34375 145.460938 C 153.9375 144.898438 152.199219 144.574219 150.6875 144.589844 C 148.996094 144.609375 147.667969 144.320312 146.21875 143.617188 C 145.085938 143.070312 143.300781 142.570312 142.257812 142.507812 C 140.988281 142.433594 139.570312 141.910156 137.972656 140.929688 C 136.265625 139.878906 135.0625 139.453125 133.765625 139.441406 C 131.714844 139.417969 128.378906 137.796875 126.628906 135.96875 L 125.519531 134.808594 L 127.894531 134.277344 C 130.789062 133.628906 138.488281 129.777344 143.699219 126.367188 C 145.8125 124.984375 150.234375 122.082031 153.527344 119.917969 C 160.863281 115.085938 161.417969 114.800781 164.757812 114.144531 C 172.496094 112.621094 178.597656 116.175781 179.589844 122.785156 C 179.96875 125.332031 179.253906 127.566406 177.390625 129.648438 C 176.601562 130.53125 175.953125 131.425781 175.953125 131.640625 C 175.953125 131.855469 176.570312 132.546875 177.320312 133.175781 C 178.421875 134.105469 178.96875 134.277344 180.171875 134.082031 C 182.429688 133.71875 182.78125 133.113281 182.816406 129.527344 C 182.84375 127.113281 182.636719 125.902344 181.964844 124.542969 C 180.132812 120.820312 181.183594 116.859375 184.460938 115.144531 C 188.894531 112.824219 193.679688 115.140625 194.210938 119.859375 C 194.359375 121.183594 194.121094 122.269531 193.285156 124.101562 C 192.292969 126.269531 192.171875 127.019531 192.28125 130.296875 L 192.402344 134.027344 L 194.410156 134.15625 C 196.253906 134.273438 199.023438 133.382812 199.023438 132.667969 C 199.023438 132.519531 198.574219 131.804688 198.019531 131.078125 C 195.558594 127.832031 195.347656 122.570312 197.546875 119.292969 C 200.277344 115.226562 203.964844 113.902344 209.398438 115.027344 C 214.386719 116.0625 216.476562 117.308594 228.578125 126.484375 C 231.472656 128.683594 236.34375 131.914062 239.398438 133.667969 C 244.683594 136.699219 245.058594 136.84375 247.195312 136.6875 C 249.257812 136.535156 249.4375 136.59375 249.4375 137.4375 C 249.4375 138.691406 246.71875 141.773438 244.707031 142.800781 C 243.804688 143.261719 242.308594 143.640625 241.386719 143.640625 C 240.46875 143.640625 238.621094 144.140625 237.285156 144.75 C 235.304688 145.65625 234.496094 145.808594 232.933594 145.574219 C 231.566406 145.371094 230.734375 145.464844 230.066406 145.90625 C 228.996094 146.605469 226.386719 147.121094 222.949219 147.308594 C 215.871094 147.695312 213.496094 147.894531 213.109375 148.132812 C 212.875 148.277344 212.414062 149.042969 212.082031 149.828125 C 211.417969 151.417969 209.683594 153.359375 207.890625 154.515625 C 206.808594 155.210938 206.714844 155.496094 206.714844 157.988281 C 206.714844 161.804688 205.320312 164.742188 201.757812 168.433594 L 198.917969 171.375 L 200.679688 173.480469 C 203.300781 176.613281 204.128906 178.757812 204.140625 182.433594 C 204.160156 188.175781 202.746094 191.410156 198.71875 194.851562 L 196.691406 196.585938 L 198.003906 197.988281 C 201.105469 201.308594 201.375 202.003906 201.347656 206.65625 C 201.316406 211.910156 200.621094 213.480469 196.898438 216.71875 C 194.515625 218.792969 193.6875 220.113281 194.773438 220.113281 C 195.023438 220.113281 195.71875 221.21875 196.316406 222.570312 C 198.207031 226.828125 197.347656 231.257812 193.855469 235.226562 C 192.9375 236.265625 192.1875 237.226562 192.1875 237.355469 C 192.1875 237.484375 192.667969 238.296875 193.257812 239.164062 C 194.121094 240.4375 194.324219 241.261719 194.324219 243.476562 C 194.324219 248.292969 191.320312 252.152344 187.574219 252.152344 L 186.335938 252.152344 L 186.046875 256.941406 C 185.777344 261.339844 185.472656 262.375 184.445312 262.402344 C 184.296875 262.40625 183.910156 262.089844 183.589844 261.699219 Z M 184.925781 250.632812 C 184.925781 244.394531 184.773438 241.046875 184.492188 241.046875 C 184.203125 241.046875 184.074219 244.429688 184.113281 250.867188 C 184.144531 256.449219 184.332031 260.585938 184.546875 260.453125 C 184.757812 260.324219 184.925781 255.90625 184.925781 250.632812 Z M 183.023438 245.5625 C 182.972656 241.785156 182.410156 241.027344 181.28125 243.210938 C 180.472656 244.773438 180.714844 247.644531 181.835938 249.796875 L 182.507812 251.085938 L 182.789062 250.015625 C 182.945312 249.429688 183.050781 247.425781 183.023438 245.5625 Z M 187.902344 249.617188 C 188.511719 248.484375 188.460938 244.324219 187.832031 243.695312 C 186.878906 242.738281 186.699219 243.175781 186.5625 246.8125 C 186.460938 249.457031 186.5625 250.445312 186.941406 250.445312 C 187.226562 250.445312 187.660156 250.074219 187.902344 249.617188 Z M 191.382812 247.59375 C 194.125 243.152344 193.078125 239.746094 187.664062 235.492188 L 185.105469 233.484375 C 184.148438 232.734375 182.828125 231.34375 182.171875 230.394531 C 181.117188 228.875 181 228.378906 181.160156 226.15625 L 181.34375 223.640625 L 179.566406 222.515625 C 178.589844 221.898438 177.476562 221.394531 177.097656 221.394531 C 175.277344 221.394531 174.355469 226.894531 175.652344 230.003906 C 176.898438 232.988281 180.820312 236.394531 184.925781 238.0625 C 187.074219 238.933594 189.53125 241.597656 189.875 243.417969 C 190.15625 244.925781 189.964844 247.089844 189.363281 249.164062 C 189.082031 250.121094 189.125 250.171875 189.761719 249.648438 C 190.152344 249.328125 190.882812 248.402344 191.382812 247.59375 Z M 179.085938 247.066406 C 178.746094 244.195312 179.167969 242.324219 180.480469 240.914062 C 181.765625 239.523438 181.59375 238.625 179.957031 238.214844 C 179.007812 237.976562 178.613281 238.148438 177.777344 239.164062 C 176.871094 240.261719 176.773438 240.730469 176.933594 243.246094 C 177.058594 245.195312 177.417969 246.574219 178.066406 247.625 C 178.589844 248.472656 179.085938 249.164062 179.175781 249.164062 C 179.261719 249.164062 179.222656 248.21875 179.085938 247.066406 Z M 191.828125 233.460938 C 194.046875 231.460938 195.164062 229.070312 195.164062 226.304688 C 195.164062 222.210938 192.636719 218.726562 187.269531 215.414062 C 184.167969 213.5 181.1875 210.871094 180.410156 209.367188 C 179.449219 207.515625 179.636719 204.664062 180.832031 202.902344 C 182.023438 201.148438 182.054688 201.195312 178.195312 198.78125 C 175.59375 197.152344 175.410156 197.21875 173.632812 200.484375 C 171.933594 203.609375 171.722656 206.851562 172.972656 210.742188 C 173.792969 213.289062 174.382812 214.226562 176.570312 216.46875 C 178.15625 218.097656 180.246094 219.6875 181.878906 220.511719 C 187.144531 223.167969 189.691406 226.550781 188.167969 228.871094 C 187.785156 229.457031 187.492188 230.804688 187.492188 231.972656 C 187.492188 235.484375 189.007812 236.003906 191.828125 233.464844 Z M 185.828125 230.6875 C 185.921875 227.164062 185.507812 225.664062 184.449219 225.664062 C 183.871094 225.664062 183.996094 231.398438 184.585938 231.988281 C 185.472656 232.878906 185.78125 232.554688 185.828125 230.6875 Z M 183.101562 226.628906 C 182.933594 225.914062 182.90625 225.914062 182.597656 226.628906 C 182.417969 227.039062 182.417969 227.710938 182.597656 228.121094 C 182.90625 228.835938 182.933594 228.835938 183.101562 228.121094 C 183.199219 227.710938 183.199219 227.039062 183.101562 226.628906 Z M 194.253906 216.375 C 197.253906 214.546875 199.09375 211.167969 199.363281 206.96875 C 199.546875 204.152344 199.445312 203.625 198.246094 201.1875 C 197.519531 199.714844 196.484375 198.109375 195.945312 197.621094 C 194.539062 196.351562 188.394531 192.171875 186.636719 191.289062 C 185.8125 190.878906 183.9375 189.746094 182.464844 188.769531 C 180.167969 187.25 179.671875 186.683594 178.941406 184.742188 C 177.554688 181.050781 177.84375 178.507812 179.910156 176.234375 C 181.089844 174.9375 180.683594 174.265625 177.867188 172.84375 L 175.4375 171.621094 L 173.941406 173.332031 C 171.613281 175.984375 170.828125 178.207031 170.828125 182.171875 C 170.828125 185.109375 171.015625 185.988281 172.128906 188.324219 C 173.652344 191.515625 176.542969 194.511719 180.078125 196.578125 C 185.4375 199.703125 189.765625 202.800781 190.53125 204.058594 C 190.972656 204.78125 191.332031 206.101562 191.335938 206.992188 C 191.335938 208.695312 190.152344 211.453125 189.015625 212.394531 C 187.886719 213.335938 188.261719 214.441406 190.160156 215.773438 C 192.328125 217.296875 192.660156 217.34375 194.253906 216.375 Z M 186.640625 209.859375 C 186.773438 204.082031 186.746094 203.957031 185.355469 203.238281 L 184.074219 202.574219 L 184.074219 207.054688 C 184.074219 211.117188 184.160156 211.617188 185.011719 212.40625 C 185.527344 212.886719 186.089844 213.136719 186.261719 212.957031 C 186.4375 212.78125 186.605469 211.386719 186.640625 209.859375 Z M 189.363281 208.5 C 189.445312 206.164062 188.570312 206.4375 188.425781 208.789062 C 188.324219 210.441406 188.410156 210.8125 188.800781 210.421875 C 189.082031 210.144531 189.332031 209.28125 189.363281 208.5 Z M 182.882812 205.9375 C 182.265625 205.316406 181.78125 207.066406 182.175781 208.5 C 182.484375 209.625 182.496094 209.613281 182.90625 208.007812 C 183.179688 206.917969 183.175781 206.226562 182.882812 205.9375 Z M 196.449219 192.140625 C 200.015625 189.519531 201.710938 186.046875 201.769531 181.234375 C 201.792969 179.285156 201.554688 177.957031 200.96875 176.773438 C 200.164062 175.15625 196.527344 170.980469 195.917969 170.980469 C 195.753906 170.980469 194.390625 170.226562 192.882812 169.304688 C 191.34375 168.363281 187.914062 166.917969 185.078125 166.015625 C 179.359375 164.203125 175.570312 162.125 173.671875 159.761719 C 172.636719 158.472656 172.339844 157.636719 172.191406 155.59375 C 171.996094 152.898438 172.324219 152.476562 173.558594 153.839844 C 175.277344 155.738281 179.566406 155.195312 181.414062 152.847656 C 182.386719 151.613281 182.296875 150.714844 181.15625 150.246094 C 178.035156 148.953125 174.320312 149.367188 171.476562 151.324219 C 167.875 153.800781 166.851562 157.96875 168.867188 161.917969 C 170.769531 165.640625 173.480469 167.660156 182.707031 172.234375 C 190.476562 176.089844 191.875 176.992188 193.070312 178.929688 C 194.71875 181.59375 193.683594 185.71875 190.6875 188.445312 C 189.015625 189.964844 188.859375 190.632812 189.945312 191.582031 C 190.949219 192.457031 193.117188 193.585938 193.839844 193.605469 C 194.164062 193.617188 195.335938 192.957031 196.449219 192.140625 Z M 175.410156 151.496094 C 174.882812 150.96875 175.566406 150.472656 176.835938 150.472656 C 177.527344 150.472656 178.089844 150.667969 178.089844 150.902344 C 178.089844 151.136719 177.820312 151.328125 177.484375 151.328125 C 177.152344 151.328125 176.613281 151.429688 176.289062 151.554688 C 175.964844 151.679688 175.570312 151.652344 175.410156 151.496094 Z M 187.691406 184.152344 C 188 178.582031 187.992188 178.519531 187 177.75 C 185.695312 176.746094 184.492188 176.355469 184.105469 176.8125 C 183.933594 177.011719 183.90625 179.730469 184.039062 182.851562 C 184.277344 188.351562 184.320312 188.546875 185.355469 189.113281 C 187.3125 190.179688 187.363281 190.066406 187.691406 184.152344 Z M 191.105469 186.230469 C 192.222656 184.527344 192.304688 182.863281 191.347656 181.320312 C 190.863281 180.546875 190.277344 180.027344 190.046875 180.171875 C 189.496094 180.511719 189.496094 187.214844 190.042969 187.214844 C 190.273438 187.214844 190.75 186.773438 191.105469 186.230469 Z M 182.792969 182.730469 C 182.792969 179.449219 182.671875 178.671875 182.164062 178.671875 C 181.4375 178.671875 180.875 179.613281 180.464844 181.535156 C 180.257812 182.492188 180.425781 183.484375 181.027344 184.84375 C 182.351562 187.835938 182.792969 187.308594 182.792969 182.730469 Z M 197.453125 168.789062 C 201.511719 166.683594 204.984375 161.710938 205.320312 157.523438 C 205.511719 155.140625 205.429688 154.839844 204.167969 153.25 C 202.078125 150.613281 199.835938 149.46875 196.726562 149.449219 C 193.894531 149.429688 191.644531 150.261719 191.421875 151.40625 C 191.347656 151.796875 191.84375 152.742188 192.527344 153.503906 C 193.613281 154.71875 194.097656 154.921875 196.3125 155.082031 C 198.570312 155.242188 199 155.140625 200.175781 154.152344 C 200.902344 153.539062 201.617188 153.039062 201.761719 153.039062 C 202.125 153.039062 201.574219 156.46875 201.042969 157.523438 C 199.503906 160.574219 195.585938 163.828125 192.058594 164.976562 C 189.878906 165.691406 190.136719 166.496094 193.042969 168.03125 C 195.65625 169.410156 196.105469 169.488281 197.453125 168.789062 Z M 196.355469 151.460938 C 195.152344 151.148438 195.496094 150.476562 196.863281 150.476562 C 198.285156 150.476562 198.9375 151.105469 197.921875 151.496094 C 197.550781 151.640625 197.214844 151.734375 197.175781 151.707031 C 197.136719 151.679688 196.765625 151.570312 196.355469 151.460938 Z M 188.40625 164.894531 C 188.582031 163.335938 188.742188 160.359375 189.1875 150.261719 C 189.457031 144.152344 189.75 138.925781 189.84375 138.644531 C 189.933594 138.363281 190.042969 135.863281 190.082031 133.089844 L 190.160156 128.046875 L 187.234375 127.75 C 185.625 127.589844 184.246094 127.515625 184.175781 127.589844 C 184.101562 127.660156 183.953125 135.808594 183.84375 145.695312 C 183.6875 159.796875 183.757812 163.742188 184.179688 164.011719 C 184.878906 164.464844 187.132812 165.3125 187.8125 165.375 C 188.105469 165.40625 188.371094 165.1875 188.40625 164.894531 Z M 193.175781 163.324219 C 195.125 162.425781 198.171875 159.832031 198.171875 159.066406 C 198.171875 158.804688 197.882812 158.589844 197.53125 158.589844 C 197.179688 158.589844 196.9375 158.371094 196.996094 158.101562 C 197.054688 157.832031 196.4375 157.433594 195.625 157.210938 C 194.808594 156.992188 193.464844 156.214844 192.632812 155.480469 L 191.121094 154.152344 L 190.992188 156.847656 C 190.921875 158.332031 190.960938 159.640625 191.078125 159.757812 C 191.195312 159.875 192.164062 159.671875 193.234375 159.304688 C 195.882812 158.402344 195.695312 159.0625 192.941406 160.332031 C 190.761719 161.339844 190.136719 162.210938 190.644531 163.53125 C 190.945312 164.316406 191.027344 164.308594 193.175781 163.324219 Z M 182.6875 162.359375 C 182.386719 161.585938 177.238281 158.589844 176.207031 158.589844 C 175.464844 158.589844 175.511719 158.742188 176.621094 159.898438 C 179.230469 162.625 183.449219 164.335938 182.6875 162.359375 Z M 182.449219 159.554688 C 182.769531 158.265625 182.867188 154.320312 182.582031 154.320312 C 182.429688 154.320312 181.695312 154.78125 180.945312 155.347656 C 180.199219 155.914062 178.929688 156.644531 178.125 156.96875 L 176.664062 157.558594 L 179.191406 158.867188 C 182.316406 160.480469 182.226562 160.460938 182.449219 159.554688 Z M 208.269531 150.695312 C 209.277344 149.644531 210.421875 148.296875 210.8125 147.699219 C 211.511719 146.632812 211.492188 146.585938 209.445312 144.382812 C 208.304688 143.152344 207.226562 142.078125 207.042969 142 C 206.863281 141.921875 205.84375 142.625 204.78125 143.558594 C 201.90625 146.089844 200.140625 146.800781 196.675781 146.824219 C 195.03125 146.835938 193.203125 146.746094 192.617188 146.628906 C 191.640625 146.433594 191.550781 146.542969 191.550781 147.910156 C 191.550781 149.558594 191.496094 149.546875 194.925781 148.734375 C 197.636719 148.097656 201.316406 149.125 203.628906 151.167969 C 204.503906 151.941406 205.492188 152.582031 205.828125 152.59375 C 206.160156 152.601562 207.261719 151.75 208.269531 150.695312 Z M 170.363281 150.734375 C 170.632812 150.410156 171.855469 149.710938 173.074219 149.1875 C 174.894531 148.402344 175.773438 148.277344 177.972656 148.484375 C 179.445312 148.621094 181.011719 148.925781 181.449219 149.160156 C 182.453125 149.695312 182.792969 149.375 182.792969 147.882812 L 182.792969 146.71875 L 179.265625 146.730469 C 176.566406 146.738281 175.28125 146.53125 173.773438 145.835938 C 171.945312 145 169.105469 142.328125 168.007812 140.410156 C 167.570312 139.648438 167.390625 139.742188 165.550781 141.71875 C 164.460938 142.890625 163.566406 144.097656 163.566406 144.402344 C 163.566406 145.589844 165.332031 148.320312 167.046875 149.789062 C 169.007812 151.46875 169.613281 151.640625 170.363281 150.734375 Z M 218.003906 145.941406 C 219.027344 145.550781 218.824219 145.082031 217.199219 144.078125 C 216.386719 143.574219 214.832031 141.828125 213.75 140.195312 C 211.988281 137.546875 211.628906 137.230469 210.398438 137.230469 C 207.402344 137.230469 207.257812 139.039062 210.015625 141.984375 C 212.109375 144.226562 213.722656 145.273438 215.902344 145.804688 C 216.605469 145.972656 217.214844 146.132812 217.253906 146.160156 C 217.292969 146.183594 217.628906 146.085938 218.003906 145.941406 Z M 181.351562 144.257812 C 182.511719 144.027344 182.777344 142.980469 182.785156 138.625 L 182.792969 135.109375 L 180.230469 135.375 L 177.671875 135.640625 L 175.746094 133.714844 C 173.351562 131.320312 173.238281 130.089844 175.261719 128.398438 C 177.203125 126.769531 178.09375 124.875 178.09375 122.355469 C 178.09375 120.523438 177.882812 120.019531 176.488281 118.472656 C 174.367188 116.117188 171.585938 115.09375 167.582031 115.199219 C 164.964844 115.265625 164.054688 115.519531 160.960938 117.058594 C 158.988281 118.039062 156.289062 119.570312 154.96875 120.453125 L 148.984375 124.457031 C 141.191406 129.671875 137.148438 131.929688 129.605469 135.277344 L 127.902344 136.03125 L 129.113281 136.667969 C 131.328125 137.828125 134.636719 137.882812 137.605469 136.808594 C 142.621094 134.996094 156.035156 126.5625 157.292969 124.433594 C 158.324219 122.6875 158.867188 123.136719 158.867188 125.738281 C 158.867188 130.714844 163.40625 135.082031 168.585938 135.089844 C 169.351562 135.09375 169.976562 135.285156 169.976562 135.519531 C 169.976562 135.757812 169.757812 135.949219 169.492188 135.949219 C 168.71875 135.949219 169.339844 139.15625 170.40625 140.652344 C 171.636719 142.378906 174.296875 144.035156 176.527344 144.464844 C 178.171875 144.78125 178.894531 144.75 181.351562 144.257812 Z M 228.078125 144.503906 C 228.078125 144.273438 227.546875 143.765625 226.902344 143.371094 C 223.851562 141.519531 221.738281 139.945312 220.132812 138.339844 C 216.628906 134.828125 216.777344 134.90625 215.289062 135.785156 C 214.566406 136.210938 213.980469 136.875 213.980469 137.257812 C 213.980469 138.355469 218.847656 142.714844 221.335938 143.847656 C 223.636719 144.890625 228.078125 145.324219 228.078125 144.503906 Z M 160.605469 143.191406 C 161.445312 142.765625 163.039062 141.605469 164.152344 140.609375 C 167.453125 137.65625 167.582031 136.6875 164.738281 136.152344 C 163.179688 135.859375 163.054688 135.9375 160.253906 138.820312 C 158.671875 140.453125 156.84375 142.128906 156.199219 142.546875 C 154.839844 143.429688 154.714844 143.921875 155.773438 144.203125 C 156.859375 144.492188 158.859375 144.074219 160.605469 143.191406 Z M 199.242188 144.023438 C 201.742188 143.390625 204.335938 141.105469 205.246094 138.726562 C 205.835938 137.175781 205.875 136.691406 205.441406 136.167969 C 205.144531 135.8125 204.976562 135.515625 205.0625 135.507812 C 205.152344 135.5 206.695312 135.449219 208.492188 135.398438 C 211.40625 135.316406 211.96875 135.160156 213.621094 133.964844 C 216.496094 131.886719 218.027344 128.292969 217.332031 125.269531 C 216.996094 123.808594 218.40625 124.765625 219.050781 126.4375 C 219.757812 128.269531 223.121094 131.253906 230.121094 136.261719 C 235.800781 140.320312 242.722656 142 245.703125 140.039062 C 247.3125 138.984375 247.175781 138.308594 245.242188 137.730469 C 241.085938 136.484375 233.109375 131.621094 224.316406 124.96875 C 213 116.40625 209.058594 114.800781 202.5625 116.117188 C 201.195312 116.394531 198.574219 118.824219 197.898438 120.441406 C 196.65625 123.40625 197.460938 126.878906 199.992188 129.488281 L 201.585938 131.128906 L 200.628906 132.539062 C 198.671875 135.414062 196.195312 136.320312 192.941406 135.351562 L 191.765625 135.003906 L 191.765625 143.613281 L 193.15625 144.015625 C 195.085938 144.574219 197.042969 144.574219 199.242188 144.023438 Z M 235.09375 143.378906 C 235.820312 143.101562 236.039062 141.929688 235.367188 141.929688 C 234.539062 141.929688 226.039062 135.941406 223.003906 133.214844 C 219.746094 130.296875 218.957031 129.917969 218.511719 131.070312 C 217.855469 132.789062 218.296875 133.910156 220.496094 136.105469 C 225.625 141.222656 232.191406 144.492188 235.09375 143.378906 Z M 153.324219 141.726562 C 154.382812 141.1875 156.742188 139.632812 158.566406 138.269531 L 161.878906 135.796875 L 160.503906 134.375 C 159.75 133.597656 158.976562 132.957031 158.792969 132.957031 C 158.605469 132.957031 157.441406 133.871094 156.203125 134.988281 C 153.335938 137.574219 150.179688 139.863281 147.871094 141.03125 C 145.695312 142.128906 145.574219 142.667969 147.441406 142.90625 C 149.492188 143.164062 151.160156 142.832031 153.324219 141.726562 Z M 146.269531 139.421875 C 148.566406 138.328125 158.015625 132.332031 158.015625 131.972656 C 158.015625 131.335938 156.582031 127.832031 156.320312 127.832031 C 156.140625 127.832031 153.511719 129.6875 150.488281 131.953125 C 145.707031 135.539062 139.816406 138.941406 138.390625 138.941406 C 137.378906 138.941406 138.027344 139.796875 139.324219 140.171875 C 141.78125 140.878906 143.636719 140.679688 146.269531 139.421875 Z M 191.386719 124.425781 C 194.4375 120.773438 192.148438 115.871094 187.394531 115.871094 C 185.550781 115.871094 185.082031 116.058594 183.820312 117.320312 C 182.574219 118.566406 182.367188 119.066406 182.367188 120.804688 C 182.367188 122.632812 182.546875 123.007812 184.144531 124.527344 C 185.832031 126.132812 186.03125 126.207031 188.078125 126.011719 C 189.855469 125.839844 190.441406 125.558594 191.386719 124.425781 Z M 187.320312 124.050781 C 187.171875 123.816406 187.453125 123.496094 187.9375 123.339844 C 189.25 122.921875 190.382812 120.335938 189.71875 119.269531 C 188.65625 117.566406 189.699219 116.855469 191.058594 118.359375 C 192.066406 119.472656 191.945312 121.601562 190.804688 122.878906 C 189.75 124.058594 187.742188 124.734375 187.320312 124.050781 Z M 187.320312 124.050781 " fill-opacity="1" fill-rule="nonzero"/></g><g fill="#0fc1a7" fill-opacity="1"><g transform="translate(83.019122, 142.273715)"><g><path d="M 0.1875 -9.140625 L -5.046875 -12.3125 L 1.59375 -23.296875 L -2.0625 -25.5 L -8.703125 -14.515625 L -13.515625 -17.421875 L -6.28125 -29.375 L -10.15625 -31.71875 L -20.359375 -14.859375 L 1.125 -1.875 L 11.390625 -18.84375 L 7.484375 -21.203125 Z M 0.1875 -9.140625 "/></g></g></g><g fill="#0fc1a7" fill-opacity="1"><g transform="translate(94.620271, 123.302234)"><g><path d="M -8.078125 -8.40625 L -5.203125 -5.921875 L 5.171875 -17.890625 L 2.296875 -20.375 Z M -8.078125 -8.40625 "/></g></g></g><g fill="#0fc1a7" fill-opacity="1"><g transform="translate(104.968775, 110.707738)"><g><path d="M -3.8125 -29.265625 L -14.140625 -20.859375 L 1.703125 -1.375 L 6.1875 -5.03125 L 0.65625 -11.828125 L 6.5 -16.578125 C 10.9375 -20.1875 10.375 -24.453125 7.453125 -28.046875 C 4.6875 -31.453125 0.625 -32.875 -3.8125 -29.265625 Z M 2.28125 -18.890625 L -2.15625 -15.28125 L -6.84375 -21.0625 L -2.375 -24.703125 C -0.203125 -26.453125 1.515625 -25.890625 2.84375 -24.265625 C 4.234375 -22.546875 4.453125 -20.65625 2.28125 -18.890625 Z M 2.28125 -18.890625 "/></g></g></g><g fill="#0fc1a7" fill-opacity="1"><g transform="translate(122.419483, 96.204793)"><g><path d="M 17.65625 -16.03125 C 15.984375 -19.25 13.640625 -19.46875 11.046875 -18.875 C 13.40625 -20.828125 14.328125 -23.96875 12.703125 -27.109375 C 10.828125 -30.734375 7.078125 -31.953125 2.15625 -29.40625 L -9.609375 -23.296875 L 1.9375 -1 L 7.078125 -3.671875 L 2.609375 -12.28125 L 7.203125 -14.65625 C 9.40625 -15.796875 11.484375 -15.515625 12.78125 -12.984375 L 13.390625 -11.828125 C 14.34375 -9.984375 15.125 -8.859375 15.8125 -8.203125 L 20.921875 -10.84375 C 20.140625 -11.78125 19.390625 -12.6875 18.4375 -14.53125 Z M 6.203125 -18.78125 L 0.71875 -15.9375 L -2.421875 -22.015625 L 3.0625 -24.859375 C 5.28125 -26 6.78125 -25.5 7.75 -23.625 C 8.828125 -21.546875 8.53125 -19.984375 6.203125 -18.78125 Z M 6.203125 -18.78125 "/></g></g></g><g fill="#0fc1a7" fill-opacity="1"><g transform="translate(143.292961, 85.259461)"><g><path d="M 6.375 -6.546875 L 4.703125 -12.4375 L 17.046875 -15.953125 L 15.890625 -20.0625 L 3.546875 -16.546875 L 2 -21.953125 L 15.4375 -25.78125 L 14.203125 -30.140625 L -4.75 -24.75 L 2.109375 -0.59375 L 21.171875 -6.015625 L 19.921875 -10.40625 Z M 6.375 -6.546875 "/></g></g></g><g fill="#0fc1a7" fill-opacity="1"><g transform="translate(164.393809, 79.002257)"><g><path d="M 0.84375 -8.34375 C 1.375 -3.8125 4.53125 0.296875 12.78125 -0.328125 C 20.59375 -0.921875 23.421875 -4.359375 23.03125 -9.296875 C 22.703125 -13.65625 19.953125 -15.875 14.828125 -16.046875 L 9.546875 -16.28125 C 7.453125 -16.34375 6.515625 -17.390625 6.40625 -18.859375 C 6.25 -20.796875 7.765625 -22.171875 10.828125 -22.40625 C 14.125 -22.65625 15.921875 -21.265625 16.390625 -18.984375 L 22 -19.40625 C 21.359375 -23.8125 17.984375 -27.1875 10.515625 -26.625 C 3.46875 -26.078125 0.328125 -22.59375 0.671875 -18.078125 C 0.984375 -13.921875 3.65625 -11.671875 8.125 -11.484375 L 13.71875 -11.1875 C 15.96875 -11.0625 17.171875 -10.15625 17.3125 -8.296875 C 17.46875 -6.28125 16.3125 -4.875 12.515625 -4.578125 C 8.5625 -4.28125 6.765625 -6.125 6.421875 -8.765625 Z M 0.84375 -8.34375 "/></g></g></g><g fill="#0fc1a7" fill-opacity="1"><g transform="translate(187.457724, 76.78998)"><g><path d="M 14.578125 2.796875 C 23.359375 4.09375 27.3125 1.078125 28.890625 -6.015625 L 23.03125 -6.875 C 22.15625 -3.046875 19.984375 -1.171875 15.203125 -1.875 C 10.21875 -2.609375 8.640625 -5.78125 9.453125 -11.265625 C 10.265625 -16.84375 12.84375 -19.40625 17.859375 -18.671875 C 22.453125 -17.984375 23.890625 -15.640625 23.6875 -11.9375 L 29.515625 -11.078125 C 29.96875 -17.953125 27.015625 -22.046875 18.46875 -23.296875 C 9.125 -24.671875 4.53125 -19.03125 3.515625 -12.140625 C 2.484375 -5.15625 5.234375 1.421875 14.578125 2.796875 Z M 14.578125 2.796875 "/></g></g></g><g fill="#0fc1a7" fill-opacity="1"><g transform="translate(214.282665, 80.710275)"><g><path d="M 23.703125 2.625 C 25.015625 -0.75 23.625 -2.65625 21.46875 -4.21875 C 24.484375 -3.734375 27.4375 -5.125 28.71875 -8.421875 C 30.203125 -12.234375 28.625 -15.84375 23.453125 -17.84375 L 11.109375 -22.625 L 2.046875 0.796875 L 7.4375 2.875 L 10.9375 -6.171875 L 15.75 -4.296875 C 18.078125 -3.40625 19.21875 -1.671875 18.203125 0.96875 L 17.71875 2.203125 C 16.96875 4.140625 16.65625 5.484375 16.609375 6.4375 L 21.96875 8.5 C 22.15625 7.28125 22.34375 6.140625 23.09375 4.203125 Z M 18.1875 -7.765625 L 12.421875 -10 L 14.890625 -16.390625 L 20.65625 -14.15625 C 22.96875 -13.25 23.59375 -11.796875 22.828125 -9.828125 C 21.984375 -7.640625 20.625 -6.828125 18.1875 -7.765625 Z M 18.1875 -7.765625 "/></g></g></g><g fill="#0fc1a7" fill-opacity="1"><g transform="translate(236.351189, 89.377905)"><g><path d="M 25.453125 -8.484375 L 27.84375 -12.34375 L 15.046875 -20.234375 L 12.65625 -16.375 L 16.609375 -13.9375 L 8.203125 -0.3125 L 4.25 -2.75 L 1.859375 1.140625 L 14.65625 9.03125 L 17.046875 5.140625 L 13.09375 2.71875 L 21.5 -10.90625 Z M 25.453125 -8.484375 "/></g></g></g><g fill="#0fc1a7" fill-opacity="1"><g transform="translate(251.631862, 98.283872)"><g><path d="M 22.4375 2.84375 C 24.953125 4.34375 27.78125 4.640625 30.25 1.90625 C 32.546875 -0.609375 32.84375 -4.125 28.859375 -7.734375 L 18.484375 -17.140625 L 1.625 1.46875 L 11.8125 10.703125 C 15.78125 14.296875 19.5625 14.203125 22.390625 11.078125 C 25.078125 8.109375 24.421875 5.3125 22.4375 2.84375 Z M 24.6875 -5.65625 C 26.4375 -4.0625 26.359375 -2.703125 25.0625 -1.28125 C 23.84375 0.0625 22.375 0.34375 20.53125 -1.328125 L 15.796875 -5.625 L 19.8125 -10.078125 Z M 13.78125 6.59375 L 8.8125 2.078125 L 13.203125 -2.765625 L 17.9375 1.53125 C 19.96875 3.375 19.859375 5.015625 18.515625 6.484375 C 17.265625 7.859375 15.703125 8.328125 13.78125 6.59375 Z M 13.78125 6.59375 "/></g></g></g><g fill="#0fc1a7" fill-opacity="1"><g transform="translate(269.350958, 113.690258)"><g><path d="M 8.015625 12.625 C 13.515625 20.53125 20.703125 19.890625 26.375 15.953125 C 31.953125 12.0625 35.171875 5.453125 29.671875 -2.453125 C 24.171875 -10.34375 16.859375 -9.671875 11.25 -5.765625 C 5.5625 -1.8125 2.515625 4.734375 8.015625 12.625 Z M 14.6875 -0.828125 C 19.234375 -4 22.671875 -4.28125 25.828125 0.234375 C 28.96875 4.75 27.515625 7.890625 22.96875 11.0625 C 18.484375 14.1875 15.03125 14.453125 11.890625 9.9375 C 8.734375 5.421875 10.203125 2.296875 14.6875 -0.828125 Z M 14.6875 -0.828125 "/></g></g></g><g fill="#0fc1a7" fill-opacity="1"><g transform="translate(284.931019, 137.26042)"><g/></g></g><g fill="#0fc1a7" fill-opacity="1"><g transform="translate(57.517432, 215.435071)"><g><path d="M 0.296875 1.171875 L 11.296875 -1.625 L 12.15625 1.75 C 12.644531 3.6875 12.515625 5.234375 11.765625 6.390625 C 11.015625 7.554688 9.78125 8.359375 8.0625 8.796875 C 6.375 9.222656 4.921875 9.101562 3.703125 8.4375 C 2.492188 7.78125 1.644531 6.484375 1.15625 4.546875 Z M 1.734375 2.203125 L 2.25 4.234375 C 2.519531 5.296875 2.910156 6.097656 3.421875 6.640625 C 3.929688 7.191406 4.550781 7.519531 5.28125 7.625 C 6.007812 7.726562 6.820312 7.664062 7.71875 7.4375 C 8.632812 7.207031 9.382812 6.867188 9.96875 6.421875 C 10.5625 5.984375 10.953125 5.398438 11.140625 4.671875 C 11.335938 3.953125 11.300781 3.0625 11.03125 2 L 10.515625 -0.03125 Z M 1.734375 2.203125 "/></g></g></g><g fill="#0fc1a7" fill-opacity="1"><g transform="translate(63.597249, 235.711227)"><g><path d="M 0.453125 1.109375 L 10.984375 -3.109375 L 11.484375 -1.84375 L 0.953125 2.375 Z M 0.453125 1.109375 "/></g></g></g><g fill="#0fc1a7" fill-opacity="1"><g transform="translate(69.036058, 248.270474)"><g><path d="M 2.84375 5.375 C 2.320312 4.457031 2.070312 3.53125 2.09375 2.59375 C 2.125 1.664062 2.410156 0.789062 2.953125 -0.03125 C 3.503906 -0.851562 4.285156 -1.550781 5.296875 -2.125 C 6.296875 -2.6875 7.289062 -2.992188 8.28125 -3.046875 C 9.28125 -3.097656 10.195312 -2.882812 11.03125 -2.40625 C 11.875 -1.9375 12.570312 -1.210938 13.125 -0.234375 C 13.757812 0.878906 14.015625 1.953125 13.890625 2.984375 C 13.773438 4.023438 13.304688 4.921875 12.484375 5.671875 L 11.71875 4.3125 C 12.238281 3.832031 12.53125 3.25 12.59375 2.5625 C 12.65625 1.875 12.46875 1.144531 12.03125 0.375 C 11.613281 -0.351562 11.09375 -0.890625 10.46875 -1.234375 C 9.851562 -1.585938 9.160156 -1.738281 8.390625 -1.6875 C 7.617188 -1.644531 6.816406 -1.390625 5.984375 -0.921875 C 5.148438 -0.441406 4.515625 0.109375 4.078125 0.734375 C 3.640625 1.367188 3.40625 2.035156 3.375 2.734375 C 3.34375 3.441406 3.519531 4.140625 3.90625 4.828125 C 4.507812 5.878906 5.269531 6.492188 6.1875 6.671875 C 7.101562 6.859375 8.113281 6.691406 9.21875 6.171875 L 7.609375 3.328125 L 8.546875 2.796875 L 10.84375 6.859375 L 5.578125 9.84375 L 4.96875 8.75 L 6.515625 7.734375 C 5.753906 7.691406 5.070312 7.5 4.46875 7.15625 C 3.863281 6.820312 3.320312 6.226562 2.84375 5.375 Z M 2.84375 5.375 "/></g></g></g><g fill="#0fc1a7" fill-opacity="1"><g transform="translate(80.802019, 267.061696)"><g><path d="M 0.734375 0.953125 L 9.75 -5.921875 L 10.5625 -4.84375 L 1.546875 2.03125 Z M 0.734375 0.953125 "/></g></g></g><g fill="#0fc1a7" fill-opacity="1"><g transform="translate(89.413149, 277.617207)"><g><path d="M 2.703125 2.765625 L 10 -4.375 L 7.625 -6.8125 L 8.4375 -7.609375 L 14.125 -1.78125 L 13.3125 -0.984375 L 10.953125 -3.40625 L 3.65625 3.734375 Z M 2.703125 2.765625 "/></g></g></g><g fill="#0fc1a7" fill-opacity="1"><g transform="translate(103.228676, 290.748571)"><g><path d="M 0.390625 0.296875 L 10.5625 -6.25 L 11.703125 -5.390625 L 8.203125 6.171875 L 7.046875 5.3125 L 8 2.359375 L 4.140625 -0.546875 L 1.515625 1.140625 Z M 5.125 -1.171875 L 8.328125 1.25 L 10.09375 -4.453125 Z M 5.125 -1.171875 "/></g></g></g><g fill="#0fc1a7" fill-opacity="1"><g transform="translate(120.266402, 302.555735)"><g><path d="M 1.0625 0.578125 L 6.46875 -9.390625 L 7.65625 -8.75 L 2.765625 0.265625 L 7.40625 2.796875 L 6.890625 3.75 Z M 1.0625 0.578125 "/></g></g></g><g fill="#0fc1a7" fill-opacity="1"><g transform="translate(136.738847, 310.666714)"><g/></g></g><g fill="#0fc1a7" fill-opacity="1"><g transform="translate(150.091395, 315.419243)"><g><path d="M 1.171875 0.296875 L 3.953125 -10.703125 L 7.546875 -9.796875 C 8.410156 -9.578125 9.082031 -9.253906 9.5625 -8.828125 C 10.050781 -8.398438 10.367188 -7.910156 10.515625 -7.359375 C 10.660156 -6.804688 10.65625 -6.226562 10.5 -5.625 C 10.351562 -5.03125 10.082031 -4.523438 9.6875 -4.109375 C 9.300781 -3.691406 8.796875 -3.410156 8.171875 -3.265625 C 7.546875 -3.117188 6.796875 -3.160156 5.921875 -3.390625 L 3.640625 -3.96875 L 2.484375 0.625 Z M 3.921875 -5.0625 L 6.171875 -4.484375 C 7.054688 -4.265625 7.734375 -4.296875 8.203125 -4.578125 C 8.671875 -4.859375 8.984375 -5.320312 9.140625 -5.96875 C 9.316406 -6.632812 9.265625 -7.195312 8.984375 -7.65625 C 8.703125 -8.125 8.117188 -8.46875 7.234375 -8.6875 L 4.984375 -9.265625 Z M 3.921875 -5.0625 "/></g></g></g><g fill="#0fc1a7" fill-opacity="1"><g transform="translate(169.013989, 319.467817)"><g><path d="M 1.203125 0.125 L 2.34375 -11.15625 L 5.96875 -10.796875 C 6.851562 -10.703125 7.5625 -10.484375 8.09375 -10.140625 C 8.625 -9.796875 9 -9.351562 9.21875 -8.8125 C 9.4375 -8.28125 9.515625 -7.707031 9.453125 -7.09375 C 9.378906 -6.394531 9.125 -5.773438 8.6875 -5.234375 C 8.25 -4.703125 7.613281 -4.359375 6.78125 -4.203125 L 8.75 0.890625 L 7.15625 0.71875 L 5.328125 -4.15625 L 5.234375 -4.171875 L 3.015625 -4.390625 L 2.546875 0.265625 Z M 3.125 -5.453125 L 5.3125 -5.234375 C 6.1875 -5.148438 6.84375 -5.296875 7.28125 -5.671875 C 7.726562 -6.054688 7.988281 -6.570312 8.0625 -7.21875 C 8.125 -7.894531 7.976562 -8.445312 7.625 -8.875 C 7.269531 -9.3125 6.644531 -9.570312 5.75 -9.65625 L 3.578125 -9.875 Z M 3.125 -5.453125 "/></g></g></g><g fill="#0fc1a7" fill-opacity="1"><g transform="translate(188.547363, 320.701676)"><g><path d="M 1.203125 -0.046875 L 0.6875 -11.375 L 7.6875 -11.703125 L 7.75 -10.578125 L 2.109375 -10.3125 L 2.28125 -6.375 L 7.4375 -6.609375 L 7.484375 -5.515625 L 2.328125 -5.28125 L 2.515625 -1.234375 L 8.15625 -1.5 L 8.203125 -0.375 Z M 1.203125 -0.046875 "/></g></g></g><g fill="#0fc1a7" fill-opacity="1"><g transform="translate(207.581559, 319.128544)"><g><path d="M 4.75 -0.71875 C 3.9375 -0.5625 3.195312 -0.570312 2.53125 -0.75 C 1.875 -0.9375 1.332031 -1.257812 0.90625 -1.71875 C 0.476562 -2.1875 0.195312 -2.773438 0.0625 -3.484375 L 1.46875 -3.75 C 1.550781 -3.3125 1.722656 -2.925781 1.984375 -2.59375 C 2.253906 -2.269531 2.601562 -2.035156 3.03125 -1.890625 C 3.457031 -1.753906 3.957031 -1.738281 4.53125 -1.84375 C 5.289062 -1.988281 5.84375 -2.285156 6.1875 -2.734375 C 6.539062 -3.179688 6.664062 -3.675781 6.5625 -4.21875 C 6.476562 -4.65625 6.3125 -4.988281 6.0625 -5.21875 C 5.8125 -5.445312 5.507812 -5.613281 5.15625 -5.71875 C 4.800781 -5.820312 4.398438 -5.898438 3.953125 -5.953125 C 3.515625 -6.003906 3.050781 -6.066406 2.5625 -6.140625 C 1.632812 -6.273438 0.925781 -6.519531 0.4375 -6.875 C -0.0507812 -7.238281 -0.363281 -7.769531 -0.5 -8.46875 C -0.632812 -9.0625 -0.601562 -9.617188 -0.40625 -10.140625 C -0.207031 -10.671875 0.125 -11.113281 0.59375 -11.46875 C 1.070312 -11.820312 1.675781 -12.070312 2.40625 -12.21875 C 3.101562 -12.351562 3.738281 -12.335938 4.3125 -12.171875 C 4.894531 -12.003906 5.375 -11.710938 5.75 -11.296875 C 6.132812 -10.890625 6.390625 -10.390625 6.515625 -9.796875 L 5.125 -9.53125 C 5.070312 -9.84375 4.9375 -10.132812 4.71875 -10.40625 C 4.507812 -10.675781 4.21875 -10.875 3.84375 -11 C 3.476562 -11.132812 3.054688 -11.15625 2.578125 -11.0625 C 1.960938 -10.957031 1.492188 -10.703125 1.171875 -10.296875 C 0.847656 -9.898438 0.738281 -9.425781 0.84375 -8.875 C 0.9375 -8.394531 1.144531 -8.050781 1.46875 -7.84375 C 1.789062 -7.644531 2.207031 -7.507812 2.71875 -7.4375 C 3.238281 -7.363281 3.835938 -7.285156 4.515625 -7.203125 C 5.078125 -7.117188 5.597656 -6.988281 6.078125 -6.8125 C 6.554688 -6.644531 6.953125 -6.378906 7.265625 -6.015625 C 7.585938 -5.660156 7.804688 -5.175781 7.921875 -4.5625 C 8.023438 -4.03125 7.984375 -3.5 7.796875 -2.96875 C 7.609375 -2.4375 7.265625 -1.96875 6.765625 -1.5625 C 6.265625 -1.164062 5.59375 -0.882812 4.75 -0.71875 Z M 4.75 -0.71875 "/></g></g></g><g fill="#0fc1a7" fill-opacity="1"><g transform="translate(226.465532, 314.791651)"><g><path d="M 5.875 -1.921875 C 4.820312 -1.535156 3.832031 -1.4375 2.90625 -1.625 C 1.988281 -1.8125 1.171875 -2.242188 0.453125 -2.921875 C -0.253906 -3.609375 -0.804688 -4.503906 -1.203125 -5.609375 C -1.585938 -6.691406 -1.722656 -7.71875 -1.609375 -8.6875 C -1.492188 -9.664062 -1.140625 -10.519531 -0.546875 -11.25 C 0.0351562 -11.988281 0.851562 -12.550781 1.90625 -12.9375 C 3.125 -13.375 4.21875 -13.4375 5.1875 -13.125 C 6.164062 -12.820312 6.957031 -12.1875 7.5625 -11.21875 L 6.140625 -10.703125 C 5.734375 -11.316406 5.207031 -11.734375 4.5625 -11.953125 C 3.914062 -12.171875 3.164062 -12.128906 2.3125 -11.828125 C 1.539062 -11.546875 0.929688 -11.125 0.484375 -10.5625 C 0.046875 -10.007812 -0.203125 -9.347656 -0.265625 -8.578125 C -0.335938 -7.816406 -0.210938 -6.984375 0.109375 -6.078125 C 0.441406 -5.160156 0.878906 -4.425781 1.421875 -3.875 C 1.960938 -3.332031 2.578125 -2.984375 3.265625 -2.828125 C 3.960938 -2.679688 4.695312 -2.75 5.46875 -3.03125 C 6.320312 -3.332031 6.925781 -3.769531 7.28125 -4.34375 C 7.644531 -4.914062 7.796875 -5.5625 7.734375 -6.28125 L 9.15625 -6.796875 C 9.300781 -5.691406 9.09375 -4.710938 8.53125 -3.859375 C 7.976562 -3.003906 7.09375 -2.359375 5.875 -1.921875 Z M 5.875 -1.921875 "/></g></g></g><g fill="#0fc1a7" fill-opacity="1"><g transform="translate(246.551595, 306.651823)"><g><path d="M 1.0625 -0.578125 L -4.390625 -10.53125 L -1.1875 -12.28125 C -0.414062 -12.707031 0.285156 -12.925781 0.921875 -12.9375 C 1.554688 -12.957031 2.113281 -12.804688 2.59375 -12.484375 C 3.082031 -12.171875 3.472656 -11.742188 3.765625 -11.203125 C 4.109375 -10.578125 4.25 -9.921875 4.1875 -9.234375 C 4.125 -8.554688 3.789062 -7.914062 3.1875 -7.3125 L 7.71875 -4.234375 L 6.296875 -3.453125 L 2.03125 -6.453125 L 1.953125 -6.421875 L 0 -5.34375 L 2.25 -1.234375 Z M -0.515625 -6.28125 L 1.40625 -7.34375 C 2.175781 -7.757812 2.632812 -8.25 2.78125 -8.8125 C 2.9375 -9.375 2.859375 -9.941406 2.546875 -10.515625 C 2.222656 -11.109375 1.789062 -11.476562 1.25 -11.625 C 0.71875 -11.78125 0.0625 -11.644531 -0.71875 -11.21875 L -2.640625 -10.171875 Z M -0.515625 -6.28125 "/></g></g></g><g fill="#0fc1a7" fill-opacity="1"><g transform="translate(263.226167, 296.597045)"><g><path d="M 0.96875 -0.703125 L -5.6875 -9.890625 L -4.578125 -10.6875 L 2.078125 -1.5 Z M 0.96875 -0.703125 "/></g></g></g><g fill="#0fc1a7" fill-opacity="1"><g transform="translate(274.003929, 288.254941)"><g><path d="M 0.875 -0.828125 L -6.859375 -9.125 L -4.140625 -11.65625 C -3.492188 -12.257812 -2.859375 -12.648438 -2.234375 -12.828125 C -1.617188 -13.003906 -1.039062 -13.003906 -0.5 -12.828125 C 0.0390625 -12.648438 0.523438 -12.332031 0.953125 -11.875 C 1.378906 -11.425781 1.660156 -10.925781 1.796875 -10.375 C 1.929688 -9.832031 1.890625 -9.257812 1.671875 -8.65625 C 1.453125 -8.050781 1.015625 -7.441406 0.359375 -6.828125 L -1.359375 -5.21875 L 1.875 -1.75 Z M -2.140625 -6.046875 L -0.4375 -7.640625 C 0.21875 -8.253906 0.554688 -8.832031 0.578125 -9.375 C 0.609375 -9.914062 0.394531 -10.429688 -0.0625 -10.921875 C -0.53125 -11.421875 -1.035156 -11.675781 -1.578125 -11.6875 C -2.117188 -11.707031 -2.71875 -11.410156 -3.375 -10.796875 L -5.078125 -9.203125 Z M -2.140625 -6.046875 "/></g></g></g><g fill="#0fc1a7" fill-opacity="1"><g transform="translate(287.63496, 274.535251)"><g><path d="M 2.40625 -3.015625 L -5.578125 -9.40625 L -7.6875 -6.75 L -8.5625 -7.453125 L -3.484375 -13.8125 L -2.609375 -13.109375 L -4.71875 -10.46875 L 3.265625 -4.078125 Z M 2.40625 -3.015625 "/></g></g></g><g fill="#0fc1a7" fill-opacity="1"><g transform="translate(298.851017, 259.287882)"><g><path d="M 0.625 -1.03125 L -9.03125 -6.984375 L -8.3125 -8.140625 L 1.34375 -2.1875 Z M 0.625 -1.03125 "/></g></g></g><g fill="#0fc1a7" fill-opacity="1"><g transform="translate(305.712069, 247.437559)"><g><path d="M 2.734375 -5.734375 C 2.285156 -4.722656 1.664062 -3.929688 0.875 -3.359375 C 0.09375 -2.785156 -0.796875 -2.460938 -1.796875 -2.390625 C -2.796875 -2.328125 -3.820312 -2.523438 -4.875 -2.984375 C -5.9375 -3.453125 -6.773438 -4.078125 -7.390625 -4.859375 C -8.003906 -5.640625 -8.367188 -6.515625 -8.484375 -7.484375 C -8.597656 -8.453125 -8.429688 -9.441406 -7.984375 -10.453125 C -7.535156 -11.472656 -6.914062 -12.269531 -6.125 -12.84375 C -5.332031 -13.414062 -4.441406 -13.734375 -3.453125 -13.796875 C -2.460938 -13.867188 -1.4375 -13.671875 -0.375 -13.203125 C 0.675781 -12.742188 1.515625 -12.125 2.140625 -11.34375 C 2.765625 -10.5625 3.128906 -9.6875 3.234375 -8.71875 C 3.347656 -7.75 3.179688 -6.753906 2.734375 -5.734375 Z M 1.640625 -6.21875 C 1.972656 -6.976562 2.097656 -7.722656 2.015625 -8.453125 C 1.929688 -9.179688 1.640625 -9.847656 1.140625 -10.453125 C 0.640625 -11.054688 -0.0507812 -11.550781 -0.9375 -11.9375 C -1.820312 -12.332031 -2.648438 -12.503906 -3.421875 -12.453125 C -4.203125 -12.410156 -4.890625 -12.175781 -5.484375 -11.75 C -6.085938 -11.320312 -6.554688 -10.726562 -6.890625 -9.96875 C -7.222656 -9.207031 -7.34375 -8.460938 -7.25 -7.734375 C -7.164062 -7.003906 -6.875 -6.335938 -6.375 -5.734375 C -5.882812 -5.140625 -5.195312 -4.644531 -4.3125 -4.25 C -3.425781 -3.863281 -2.59375 -3.691406 -1.8125 -3.734375 C -1.03125 -3.773438 -0.34375 -4.007812 0.25 -4.4375 C 0.84375 -4.863281 1.304688 -5.457031 1.640625 -6.21875 Z M 1.640625 -6.21875 "/></g></g></g><g fill="#0fc1a7" fill-opacity="1"><g transform="translate(314.049042, 226.259218)"><g><path d="M 0.296875 -1.171875 L -10.703125 -3.96875 L -10.375 -5.28125 L -0.0625 -8.890625 L -8.875 -11.140625 L -8.546875 -12.453125 L 2.453125 -9.65625 L 2.125 -8.34375 L -8.1875 -4.71875 L 0.625 -2.484375 Z M 0.296875 -1.171875 "/></g></g></g></svg>