<svg xmlns="http://www.w3.org/2000/svg" version="1.1" xmlns:xlink="http://www.w3.org/1999/xlink" xmlns:svgjs="http://svgjs.dev/svgjs" viewBox="0 0 800 800" opacity="0.68" width="800" height="800"><g stroke-width="2" stroke="#0bc1a7ff" fill="none"><rect width="9.736842105263158" height="9.736842105263158" x="-4.868421052631579" y="-4.868421052631579" transform="rotate(45, 0, 0)"></rect><rect width="9.736842105263158" height="9.736842105263158" x="95.13157894736842" y="-4.868421052631579" transform="rotate(45, 100, 0)"></rect><rect width="9.736842105263158" height="9.736842105263158" x="195.1315789473684" y="-4.868421052631579" transform="rotate(45, 200, 0)"></rect><rect width="9.736842105263158" height="9.736842105263158" x="295.13157894736844" y="-4.868421052631579" transform="rotate(45, 300, 0)"></rect><rect width="9.736842105263158" height="9.736842105263158" x="395.13157894736844" y="-4.868421052631579" transform="rotate(45, 400, 0)"></rect><rect width="9.736842105263158" height="9.736842105263158" x="495.13157894736844" y="-4.868421052631579" transform="rotate(45, 500, 0)"></rect><rect width="9.736842105263158" height="9.736842105263158" x="595.1315789473684" y="-4.868421052631579" transform="rotate(45, 600, 0)"></rect><rect width="9.736842105263158" height="9.736842105263158" x="695.1315789473684" y="-4.868421052631579" transform="rotate(45, 700, 0)"></rect><rect width="9.736842105263158" height="9.736842105263158" x="795.1315789473684" y="-4.868421052631579" transform="rotate(45, 800, 0)"></rect><rect width="9.736842105263158" height="9.736842105263158" x="-4.868421052631579" y="75.13157894736842" transform="rotate(45, 0, 80)"></rect><rect width="9.736842105263158" height="9.736842105263158" x="95.13157894736842" y="75.13157894736842" transform="rotate(45, 100, 80)"></rect><rect width="9.736842105263158" height="9.736842105263158" x="195.1315789473684" y="75.13157894736842" transform="rotate(45, 200, 80)"></rect><rect width="9.736842105263158" height="9.736842105263158" x="295.13157894736844" y="75.13157894736842" fill="#0bc1a7ff" stroke="none" transform="rotate(45, 300, 80)"></rect><rect width="9.736842105263158" height="9.736842105263158" x="395.13157894736844" y="75.13157894736842" transform="rotate(45, 400, 80)"></rect><rect width="9.736842105263158" height="9.736842105263158" x="495.13157894736844" y="75.13157894736842" transform="rotate(45, 500, 80)"></rect><rect width="9.736842105263158" height="9.736842105263158" x="595.1315789473684" y="75.13157894736842" transform="rotate(45, 600, 80)"></rect><rect width="9.736842105263158" height="9.736842105263158" x="695.1315789473684" y="75.13157894736842" transform="rotate(45, 700, 80)"></rect><rect width="9.736842105263158" height="9.736842105263158" x="795.1315789473684" y="75.13157894736842" transform="rotate(45, 800, 80)"></rect><rect width="9.736842105263158" height="9.736842105263158" x="-4.868421052631579" y="155.1315789473684" transform="rotate(45, 0, 160)"></rect><rect width="9.736842105263158" height="9.736842105263158" x="95.13157894736842" y="155.1315789473684" fill="#0bc1a7ff" stroke="none" transform="rotate(45, 100, 160)"></rect><rect width="9.736842105263158" height="9.736842105263158" x="195.1315789473684" y="155.1315789473684" transform="rotate(45, 200, 160)"></rect><rect width="9.736842105263158" height="9.736842105263158" x="295.13157894736844" y="155.1315789473684" transform="rotate(45, 300, 160)"></rect><rect width="9.736842105263158" height="9.736842105263158" x="395.13157894736844" y="155.1315789473684" transform="rotate(45, 400, 160)"></rect><rect width="9.736842105263158" height="9.736842105263158" x="495.13157894736844" y="155.1315789473684" transform="rotate(45, 500, 160)"></rect><rect width="9.736842105263158" height="9.736842105263158" x="595.1315789473684" y="155.1315789473684" transform="rotate(45, 600, 160)"></rect><rect width="9.736842105263158" height="9.736842105263158" x="695.1315789473684" y="155.1315789473684" transform="rotate(45, 700, 160)"></rect><rect width="9.736842105263158" height="9.736842105263158" x="795.1315789473684" y="155.1315789473684" transform="rotate(45, 800, 160)"></rect><rect width="9.736842105263158" height="9.736842105263158" x="-4.868421052631579" y="235.1315789473684" transform="rotate(45, 0, 240)"></rect><rect width="9.736842105263158" height="9.736842105263158" x="95.13157894736842" y="235.1315789473684" fill="#0bc1a7ff" stroke="none" transform="rotate(45, 100, 240)"></rect><rect width="9.736842105263158" height="9.736842105263158" x="195.1315789473684" y="235.1315789473684" fill="#0bc1a7ff" stroke="none" transform="rotate(45, 200, 240)"></rect><rect width="9.736842105263158" height="9.736842105263158" x="295.13157894736844" y="235.1315789473684" transform="rotate(45, 300, 240)"></rect><rect width="9.736842105263158" height="9.736842105263158" x="395.13157894736844" y="235.1315789473684" transform="rotate(45, 400, 240)"></rect><rect width="9.736842105263158" height="9.736842105263158" x="495.13157894736844" y="235.1315789473684" transform="rotate(45, 500, 240)"></rect><rect width="9.736842105263158" height="9.736842105263158" x="595.1315789473684" y="235.1315789473684" transform="rotate(45, 600, 240)"></rect><rect width="9.736842105263158" height="9.736842105263158" x="695.1315789473684" y="235.1315789473684" fill="#0bc1a7ff" stroke="none" transform="rotate(45, 700, 240)"></rect><rect width="9.736842105263158" height="9.736842105263158" x="795.1315789473684" y="235.1315789473684" transform="rotate(45, 800, 240)"></rect><rect width="9.736842105263158" height="9.736842105263158" x="-4.868421052631579" y="315.13157894736844" transform="rotate(45, 0, 320)"></rect><rect width="9.736842105263158" height="9.736842105263158" x="95.13157894736842" y="315.13157894736844" transform="rotate(45, 100, 320)"></rect><rect width="9.736842105263158" height="9.736842105263158" x="195.1315789473684" y="315.13157894736844" transform="rotate(45, 200, 320)"></rect><rect width="9.736842105263158" height="9.736842105263158" x="295.13157894736844" y="315.13157894736844" transform="rotate(45, 300, 320)"></rect><rect width="9.736842105263158" height="9.736842105263158" x="395.13157894736844" y="315.13157894736844" fill="#0bc1a7ff" stroke="none" transform="rotate(45, 400, 320)"></rect><rect width="9.736842105263158" height="9.736842105263158" x="495.13157894736844" y="315.13157894736844" transform="rotate(45, 500, 320)"></rect><rect width="9.736842105263158" height="9.736842105263158" x="595.1315789473684" y="315.13157894736844" transform="rotate(45, 600, 320)"></rect><rect width="9.736842105263158" height="9.736842105263158" x="695.1315789473684" y="315.13157894736844" fill="#0bc1a7ff" stroke="none" transform="rotate(45, 700, 320)"></rect><rect width="9.736842105263158" height="9.736842105263158" x="795.1315789473684" y="315.13157894736844" transform="rotate(45, 800, 320)"></rect><rect width="9.736842105263158" height="9.736842105263158" x="-4.868421052631579" y="395.13157894736844" transform="rotate(45, 0, 400)"></rect><rect width="9.736842105263158" height="9.736842105263158" x="95.13157894736842" y="395.13157894736844" fill="#0bc1a7ff" stroke="none" transform="rotate(45, 100, 400)"></rect><rect width="9.736842105263158" height="9.736842105263158" x="195.1315789473684" y="395.13157894736844" fill="#0bc1a7ff" stroke="none" transform="rotate(45, 200, 400)"></rect><rect width="9.736842105263158" height="9.736842105263158" x="295.13157894736844" y="395.13157894736844" fill="#0bc1a7ff" stroke="none" transform="rotate(45, 300, 400)"></rect><rect width="9.736842105263158" height="9.736842105263158" x="395.13157894736844" y="395.13157894736844" transform="rotate(45, 400, 400)"></rect><rect width="9.736842105263158" height="9.736842105263158" x="495.13157894736844" y="395.13157894736844" transform="rotate(45, 500, 400)"></rect><rect width="9.736842105263158" height="9.736842105263158" x="595.1315789473684" y="395.13157894736844" fill="#0bc1a7ff" stroke="none" transform="rotate(45, 600, 400)"></rect><rect width="9.736842105263158" height="9.736842105263158" x="695.1315789473684" y="395.13157894736844" transform="rotate(45, 700, 400)"></rect><rect width="9.736842105263158" height="9.736842105263158" x="795.1315789473684" y="395.13157894736844" transform="rotate(45, 800, 400)"></rect><rect width="9.736842105263158" height="9.736842105263158" x="-4.868421052631579" y="475.13157894736844" transform="rotate(45, 0, 480)"></rect><rect width="9.736842105263158" height="9.736842105263158" x="95.13157894736842" y="475.13157894736844" fill="#0bc1a7ff" stroke="none" transform="rotate(45, 100, 480)"></rect><rect width="9.736842105263158" height="9.736842105263158" x="195.1315789473684" y="475.13157894736844" fill="#0bc1a7ff" stroke="none" transform="rotate(45, 200, 480)"></rect><rect width="9.736842105263158" height="9.736842105263158" x="295.13157894736844" y="475.13157894736844" fill="#0bc1a7ff" stroke="none" transform="rotate(45, 300, 480)"></rect><rect width="9.736842105263158" height="9.736842105263158" x="395.13157894736844" y="475.13157894736844" fill="#0bc1a7ff" stroke="none" transform="rotate(45, 400, 480)"></rect><rect width="9.736842105263158" height="9.736842105263158" x="495.13157894736844" y="475.13157894736844" transform="rotate(45, 500, 480)"></rect><rect width="9.736842105263158" height="9.736842105263158" x="595.1315789473684" y="475.13157894736844" transform="rotate(45, 600, 480)"></rect><rect width="9.736842105263158" height="9.736842105263158" x="695.1315789473684" y="475.13157894736844" transform="rotate(45, 700, 480)"></rect><rect width="9.736842105263158" height="9.736842105263158" x="795.1315789473684" y="475.13157894736844" transform="rotate(45, 800, 480)"></rect><rect width="9.736842105263158" height="9.736842105263158" x="-4.868421052631579" y="555.1315789473684" transform="rotate(45, 0, 560)"></rect><rect width="9.736842105263158" height="9.736842105263158" x="95.13157894736842" y="555.1315789473684" transform="rotate(45, 100, 560)"></rect><rect width="9.736842105263158" height="9.736842105263158" x="195.1315789473684" y="555.1315789473684" transform="rotate(45, 200, 560)"></rect><rect width="9.736842105263158" height="9.736842105263158" x="295.13157894736844" y="555.1315789473684" transform="rotate(45, 300, 560)"></rect><rect width="9.736842105263158" height="9.736842105263158" x="395.13157894736844" y="555.1315789473684" transform="rotate(45, 400, 560)"></rect><rect width="9.736842105263158" height="9.736842105263158" x="495.13157894736844" y="555.1315789473684" transform="rotate(45, 500, 560)"></rect><rect width="9.736842105263158" height="9.736842105263158" x="595.1315789473684" y="555.1315789473684" transform="rotate(45, 600, 560)"></rect><rect width="9.736842105263158" height="9.736842105263158" x="695.1315789473684" y="555.1315789473684" transform="rotate(45, 700, 560)"></rect><rect width="9.736842105263158" height="9.736842105263158" x="795.1315789473684" y="555.1315789473684" transform="rotate(45, 800, 560)"></rect><rect width="9.736842105263158" height="9.736842105263158" x="-4.868421052631579" y="635.1315789473684" transform="rotate(45, 0, 640)"></rect><rect width="9.736842105263158" height="9.736842105263158" x="95.13157894736842" y="635.1315789473684" transform="rotate(45, 100, 640)"></rect><rect width="9.736842105263158" height="9.736842105263158" x="195.1315789473684" y="635.1315789473684" transform="rotate(45, 200, 640)"></rect><rect width="9.736842105263158" height="9.736842105263158" x="295.13157894736844" y="635.1315789473684" transform="rotate(45, 300, 640)"></rect><rect width="9.736842105263158" height="9.736842105263158" x="395.13157894736844" y="635.1315789473684" transform="rotate(45, 400, 640)"></rect><rect width="9.736842105263158" height="9.736842105263158" x="495.13157894736844" y="635.1315789473684" transform="rotate(45, 500, 640)"></rect><rect width="9.736842105263158" height="9.736842105263158" x="595.1315789473684" y="635.1315789473684" transform="rotate(45, 600, 640)"></rect><rect width="9.736842105263158" height="9.736842105263158" x="695.1315789473684" y="635.1315789473684" transform="rotate(45, 700, 640)"></rect><rect width="9.736842105263158" height="9.736842105263158" x="795.1315789473684" y="635.1315789473684" transform="rotate(45, 800, 640)"></rect><rect width="9.736842105263158" height="9.736842105263158" x="-4.868421052631579" y="715.1315789473684" transform="rotate(45, 0, 720)"></rect><rect width="9.736842105263158" height="9.736842105263158" x="95.13157894736842" y="715.1315789473684" fill="#0bc1a7ff" stroke="none" transform="rotate(45, 100, 720)"></rect><rect width="9.736842105263158" height="9.736842105263158" x="195.1315789473684" y="715.1315789473684" transform="rotate(45, 200, 720)"></rect><rect width="9.736842105263158" height="9.736842105263158" x="295.13157894736844" y="715.1315789473684" transform="rotate(45, 300, 720)"></rect><rect width="9.736842105263158" height="9.736842105263158" x="395.13157894736844" y="715.1315789473684" transform="rotate(45, 400, 720)"></rect><rect width="9.736842105263158" height="9.736842105263158" x="495.13157894736844" y="715.1315789473684" transform="rotate(45, 500, 720)"></rect><rect width="9.736842105263158" height="9.736842105263158" x="595.1315789473684" y="715.1315789473684" transform="rotate(45, 600, 720)"></rect><rect width="9.736842105263158" height="9.736842105263158" x="695.1315789473684" y="715.1315789473684" transform="rotate(45, 700, 720)"></rect><rect width="9.736842105263158" height="9.736842105263158" x="795.1315789473684" y="715.1315789473684" transform="rotate(45, 800, 720)"></rect><rect width="9.736842105263158" height="9.736842105263158" x="-4.868421052631579" y="795.1315789473684" transform="rotate(45, 0, 800)"></rect><rect width="9.736842105263158" height="9.736842105263158" x="95.13157894736842" y="795.1315789473684" transform="rotate(45, 100, 800)"></rect><rect width="9.736842105263158" height="9.736842105263158" x="195.1315789473684" y="795.1315789473684" transform="rotate(45, 200, 800)"></rect><rect width="9.736842105263158" height="9.736842105263158" x="295.13157894736844" y="795.1315789473684" transform="rotate(45, 300, 800)"></rect><rect width="9.736842105263158" height="9.736842105263158" x="395.13157894736844" y="795.1315789473684" transform="rotate(45, 400, 800)"></rect><rect width="9.736842105263158" height="9.736842105263158" x="495.13157894736844" y="795.1315789473684" transform="rotate(45, 500, 800)"></rect><rect width="9.736842105263158" height="9.736842105263158" x="595.1315789473684" y="795.1315789473684" transform="rotate(45, 600, 800)"></rect><rect width="9.736842105263158" height="9.736842105263158" x="695.1315789473684" y="795.1315789473684" transform="rotate(45, 700, 800)"></rect><rect width="9.736842105263158" height="9.736842105263158" x="795.1315789473684" y="795.1315789473684" transform="rotate(45, 800, 800)"></rect></g></svg>