<svg xmlns="http://www.w3.org/2000/svg" version="1.1" xmlns:xlink="http://www.w3.org/1999/xlink" xmlns:svgjs="http://svgjs.dev/svgjs" viewBox="0 0 800 800" opacity="1" width="800" height="800"><g stroke-width="2" stroke="#0bc1a7ff" fill="none"><circle r="4.868421052631579" cx="0" cy="0" fill="#0bc1a7ff" stroke="none" opacity="0.35"></circle><circle r="4.868421052631579" cx="100" cy="0" fill="#0bc1a7ff" stroke="none" opacity="0.35"></circle><circle r="4.868421052631579" cx="200" cy="0" fill="#0bc1a7ff" stroke="none" opacity="0.35"></circle><circle r="4.868421052631579" cx="300" cy="0" fill="#0bc1a7ff" stroke="none" opacity="0.35"></circle><circle r="4.868421052631579" cx="400" cy="0" fill="#0bc1a7ff" stroke="none" opacity="0.35"></circle><circle r="4.868421052631579" cx="500" cy="0" fill="#0bc1a7ff" stroke="none" opacity="0.35"></circle><circle r="4.868421052631579" cx="600" cy="0" fill="#0bc1a7ff" stroke="none" opacity="0.35"></circle><circle r="4.868421052631579" cx="700" cy="0" fill="#0bc1a7ff" stroke="none" opacity="0.35"></circle><circle r="4.868421052631579" cx="800" cy="0" fill="#0bc1a7ff" stroke="none" opacity="0.35"></circle><circle r="4.868421052631579" cx="0" cy="80" fill="#0bc1a7ff" stroke="none" opacity="0.35"></circle><circle r="4.868421052631579" cx="100" cy="80" fill="#0bc1a7ff" stroke="none" opacity="0.35"></circle><circle r="4.868421052631579" cx="200" cy="80" fill="#0bc1a7ff" stroke="none" opacity="0.35"></circle><circle r="4.868421052631579" cx="300" cy="80" fill="#0bc1a7ff" stroke="none" opacity="0.35"></circle><circle r="4.868421052631579" cx="400" cy="80" fill="#0bc1a7ff" stroke="none" opacity="0.35"></circle><circle r="4.868421052631579" cx="500" cy="80" fill="#0bc1a7ff" stroke="none" opacity="0.35"></circle><circle r="4.868421052631579" cx="600" cy="80" fill="#0bc1a7ff" stroke="none" opacity="0.35"></circle><circle r="4.868421052631579" cx="700" cy="80" fill="#0bc1a7ff" stroke="none" opacity="0.35"></circle><circle r="4.868421052631579" cx="800" cy="80" fill="#0bc1a7ff" stroke="none" opacity="0.35"></circle><circle r="4.868421052631579" cx="0" cy="160" fill="#0bc1a7ff" stroke="none" opacity="0.35"></circle><circle r="4.868421052631579" cx="100" cy="160" fill="#0bc1a7ff" stroke="none" opacity="0.35"></circle><circle r="4.868421052631579" cx="200" cy="160" fill="#0bc1a7ff" stroke="none"></circle><circle r="4.868421052631579" cx="300" cy="160" fill="#0bc1a7ff" stroke="none" opacity="0.35"></circle><circle r="4.868421052631579" cx="400" cy="160" fill="#0bc1a7ff" stroke="none" opacity="0.35"></circle><circle r="4.868421052631579" cx="500" cy="160" fill="#0bc1a7ff" stroke="none" opacity="0.35"></circle><circle r="4.868421052631579" cx="600" cy="160" fill="#0bc1a7ff" stroke="none"></circle><circle r="4.868421052631579" cx="700" cy="160" fill="#0bc1a7ff" stroke="none" opacity="0.35"></circle><circle r="4.868421052631579" cx="800" cy="160" fill="#0bc1a7ff" stroke="none" opacity="0.35"></circle><circle r="4.868421052631579" cx="0" cy="240" fill="#0bc1a7ff" stroke="none" opacity="0.35"></circle><circle r="4.868421052631579" cx="100" cy="240" fill="#0bc1a7ff" stroke="none" opacity="0.35"></circle><circle r="4.868421052631579" cx="200" cy="240" fill="#0bc1a7ff" stroke="none"></circle><circle r="4.868421052631579" cx="300" cy="240" fill="#0bc1a7ff" stroke="none" opacity="0.35"></circle><circle r="4.868421052631579" cx="400" cy="240" fill="#0bc1a7ff" stroke="none" opacity="0.35"></circle><circle r="4.868421052631579" cx="500" cy="240" fill="#0bc1a7ff" stroke="none"></circle><circle r="4.868421052631579" cx="600" cy="240" fill="#0bc1a7ff" stroke="none" opacity="0.35"></circle><circle r="4.868421052631579" cx="700" cy="240" fill="#0bc1a7ff" stroke="none"></circle><circle r="4.868421052631579" cx="800" cy="240" fill="#0bc1a7ff" stroke="none" opacity="0.35"></circle><circle r="4.868421052631579" cx="0" cy="320" fill="#0bc1a7ff" stroke="none" opacity="0.35"></circle><circle r="4.868421052631579" cx="100" cy="320" fill="#0bc1a7ff" stroke="none" opacity="0.35"></circle><circle r="4.868421052631579" cx="200" cy="320" fill="#0bc1a7ff" stroke="none"></circle><circle r="4.868421052631579" cx="300" cy="320" fill="#0bc1a7ff" stroke="none"></circle><circle r="4.868421052631579" cx="400" cy="320" fill="#0bc1a7ff" stroke="none" opacity="0.35"></circle><circle r="4.868421052631579" cx="500" cy="320" fill="#0bc1a7ff" stroke="none" opacity="0.35"></circle><circle r="4.868421052631579" cx="600" cy="320" fill="#0bc1a7ff" stroke="none"></circle><circle r="4.868421052631579" cx="700" cy="320" fill="#0bc1a7ff" stroke="none" opacity="0.35"></circle><circle r="4.868421052631579" cx="800" cy="320" fill="#0bc1a7ff" stroke="none" opacity="0.35"></circle><circle r="4.868421052631579" cx="0" cy="400" fill="#0bc1a7ff" stroke="none" opacity="0.35"></circle><circle r="4.868421052631579" cx="100" cy="400" fill="#0bc1a7ff" stroke="none" opacity="0.35"></circle><circle r="4.868421052631579" cx="200" cy="400" fill="#0bc1a7ff" stroke="none" opacity="0.35"></circle><circle r="4.868421052631579" cx="300" cy="400" fill="#0bc1a7ff" stroke="none" opacity="0.35"></circle><circle r="4.868421052631579" cx="400" cy="400" fill="#0bc1a7ff" stroke="none" opacity="0.35"></circle><circle r="4.868421052631579" cx="500" cy="400" fill="#0bc1a7ff" stroke="none" opacity="0.35"></circle><circle r="4.868421052631579" cx="600" cy="400" fill="#0bc1a7ff" stroke="none" opacity="0.35"></circle><circle r="4.868421052631579" cx="700" cy="400" fill="#0bc1a7ff" stroke="none" opacity="0.35"></circle><circle r="4.868421052631579" cx="800" cy="400" fill="#0bc1a7ff" stroke="none" opacity="0.35"></circle><circle r="4.868421052631579" cx="0" cy="480" fill="#0bc1a7ff" stroke="none" opacity="0.35"></circle><circle r="4.868421052631579" cx="100" cy="480" fill="#0bc1a7ff" stroke="none" opacity="0.35"></circle><circle r="4.868421052631579" cx="200" cy="480" fill="#0bc1a7ff" stroke="none" opacity="0.35"></circle><circle r="4.868421052631579" cx="300" cy="480" fill="#0bc1a7ff" stroke="none" opacity="0.35"></circle><circle r="4.868421052631579" cx="400" cy="480" fill="#0bc1a7ff" stroke="none" opacity="0.35"></circle><circle r="4.868421052631579" cx="500" cy="480" fill="#0bc1a7ff" stroke="none" opacity="0.35"></circle><circle r="4.868421052631579" cx="600" cy="480" fill="#0bc1a7ff" stroke="none" opacity="0.35"></circle><circle r="4.868421052631579" cx="700" cy="480" fill="#0bc1a7ff" stroke="none" opacity="0.35"></circle><circle r="4.868421052631579" cx="800" cy="480" fill="#0bc1a7ff" stroke="none" opacity="0.35"></circle><circle r="4.868421052631579" cx="0" cy="560" fill="#0bc1a7ff" stroke="none" opacity="0.35"></circle><circle r="4.868421052631579" cx="100" cy="560" fill="#0bc1a7ff" stroke="none"></circle><circle r="4.868421052631579" cx="200" cy="560" fill="#0bc1a7ff" stroke="none"></circle><circle r="4.868421052631579" cx="300" cy="560" fill="#0bc1a7ff" stroke="none"></circle><circle r="4.868421052631579" cx="400" cy="560" fill="#0bc1a7ff" stroke="none" opacity="0.35"></circle><circle r="4.868421052631579" cx="500" cy="560" fill="#0bc1a7ff" stroke="none"></circle><circle r="4.868421052631579" cx="600" cy="560" fill="#0bc1a7ff" stroke="none" opacity="0.35"></circle><circle r="4.868421052631579" cx="700" cy="560" fill="#0bc1a7ff" stroke="none" opacity="0.35"></circle><circle r="4.868421052631579" cx="800" cy="560" fill="#0bc1a7ff" stroke="none" opacity="0.35"></circle><circle r="4.868421052631579" cx="0" cy="640" fill="#0bc1a7ff" stroke="none" opacity="0.35"></circle><circle r="4.868421052631579" cx="100" cy="640" fill="#0bc1a7ff" stroke="none" opacity="0.35"></circle><circle r="4.868421052631579" cx="200" cy="640" fill="#0bc1a7ff" stroke="none" opacity="0.35"></circle><circle r="4.868421052631579" cx="300" cy="640" fill="#0bc1a7ff" stroke="none" opacity="0.35"></circle><circle r="4.868421052631579" cx="400" cy="640" fill="#0bc1a7ff" stroke="none" opacity="0.35"></circle><circle r="4.868421052631579" cx="500" cy="640" fill="#0bc1a7ff" stroke="none" opacity="0.35"></circle><circle r="4.868421052631579" cx="600" cy="640" fill="#0bc1a7ff" stroke="none" opacity="0.35"></circle><circle r="4.868421052631579" cx="700" cy="640" fill="#0bc1a7ff" stroke="none" opacity="0.35"></circle><circle r="4.868421052631579" cx="800" cy="640" fill="#0bc1a7ff" stroke="none" opacity="0.35"></circle><circle r="4.868421052631579" cx="0" cy="720" fill="#0bc1a7ff" stroke="none" opacity="0.35"></circle><circle r="4.868421052631579" cx="100" cy="720" fill="#0bc1a7ff" stroke="none" opacity="0.35"></circle><circle r="4.868421052631579" cx="200" cy="720" fill="#0bc1a7ff" stroke="none" opacity="0.35"></circle><circle r="4.868421052631579" cx="300" cy="720" fill="#0bc1a7ff" stroke="none" opacity="0.35"></circle><circle r="4.868421052631579" cx="400" cy="720" fill="#0bc1a7ff" stroke="none" opacity="0.35"></circle><circle r="4.868421052631579" cx="500" cy="720" fill="#0bc1a7ff" stroke="none"></circle><circle r="4.868421052631579" cx="600" cy="720" fill="#0bc1a7ff" stroke="none" opacity="0.35"></circle><circle r="4.868421052631579" cx="700" cy="720" fill="#0bc1a7ff" stroke="none" opacity="0.35"></circle><circle r="4.868421052631579" cx="800" cy="720" fill="#0bc1a7ff" stroke="none" opacity="0.35"></circle><circle r="4.868421052631579" cx="0" cy="800" fill="#0bc1a7ff" stroke="none" opacity="0.35"></circle><circle r="4.868421052631579" cx="100" cy="800" fill="#0bc1a7ff" stroke="none" opacity="0.35"></circle><circle r="4.868421052631579" cx="200" cy="800" fill="#0bc1a7ff" stroke="none" opacity="0.35"></circle><circle r="4.868421052631579" cx="300" cy="800" fill="#0bc1a7ff" stroke="none" opacity="0.35"></circle><circle r="4.868421052631579" cx="400" cy="800" fill="#0bc1a7ff" stroke="none" opacity="0.35"></circle><circle r="4.868421052631579" cx="500" cy="800" fill="#0bc1a7ff" stroke="none" opacity="0.35"></circle><circle r="4.868421052631579" cx="600" cy="800" fill="#0bc1a7ff" stroke="none" opacity="0.35"></circle><circle r="4.868421052631579" cx="700" cy="800" fill="#0bc1a7ff" stroke="none" opacity="0.35"></circle><circle r="4.868421052631579" cx="800" cy="800" fill="#0bc1a7ff" stroke="none" opacity="0.35"></circle></g></svg>